Coordinates
version=1
nRows=8
nColumns=63
inDegrees=yes

Units are S.I. units (second, meters, Newtons, ...)
If the header above contains a line with 'inDegrees', this indicates whether rotational values are in degrees (yes) or radians (no).

endheader
time	pelvis_tilt	pelvis_list	pelvis_rotation	pelvis_tx	pelvis_ty	pelvis_tz	hip_flexion_r	hip_adduction_r	hip_rotation_r	knee_angle_r	knee_angle_r_beta	ankle_angle_r	subtalar_angle_r	mtp_angle_r	hip_flexion_l	hip_adduction_l	hip_rotation_l	knee_angle_l	knee_angle_l_beta	ankle_angle_l	subtalar_angle_l	mtp_angle_l	L5_S1_Flex_Ext	L5_S1_Lat_Bending	L5_S1_axial_rotation	L4_L5_Flex_Ext	L4_L5_Lat_Bending	L4_L5_axial_rotation	L3_L4_Flex_Ext	L3_L4_Lat_Bending	L3_L4_axial_rotation	L2_L3_Flex_Ext	L2_L3_Lat_Bending	L2_L3_axial_rotation	L1_L2_Flex_Ext	L1_L2_Lat_Bending	L1_L2_axial_rotation	L1_T12_Flex_Ext	L1_T12_Lat_Bending	L1_T12_axial_rotation	Abs_r3	Abs_r2	Abs_r1	Abs_t1	Abs_t2	neck_flexion	neck_bending	neck_rotation	arm_flex_r	arm_add_r	arm_rot_r	elbow_flex_r	pro_sup_r	wrist_flex_r	wrist_dev_r	arm_flex_l	arm_add_l	arm_rot_l	elbow_flex_l	pro_sup_l	wrist_flex_l	wrist_dev_l
3.666667	-0.091052	-6.072529	91.782682	0.025339	0.914029	0.619696	6.175515	-2.128861	4.177433	18.134078	0.316499	36.460556	-4.850954	0.000000	-0.008835	1.929030	-7.790596	6.610241	0.115370	36.062124	6.994370	0.000000	-0.050795	-0.141703	0.818419	-0.094332	-0.188466	0.869570	-0.083452	-0.344538	0.869570	-0.058054	-0.344538	0.716116	-0.047169	-0.288962	0.664965	-0.029024	-0.219499	0.613814	-0.362826	-1.602978	4.551799	0.000000	0.000000	18.504352	-0.165661	-16.624072	6.006361	-5.431594	-14.282893	148.991605	88.727409	-2.004833	3.388289	-1.748313	-18.072041	6.195304	136.848127	83.756803	-4.247668	-16.079041
3.683333	-0.088581	-6.013808	91.676689	0.024955	0.914160	0.619786	6.159851	-2.172951	4.111673	18.204806	0.317734	36.483005	-4.635266	0.000000	-0.093607	1.994662	-7.432888	6.547048	0.114268	35.994350	6.421714	0.000000	-0.056736	-0.128390	0.804903	-0.105365	-0.170758	0.855210	-0.093212	-0.312167	0.855210	-0.064844	-0.312167	0.704290	-0.052685	-0.261812	0.653984	-0.032419	-0.198876	0.603678	-0.405262	-1.452370	4.476631	0.000000	0.000000	18.310263	-0.240033	-16.226905	6.638803	-5.425564	-13.706472	148.697431	88.729735	-2.213960	4.059463	-1.519761	-17.985120	6.420907	136.818007	83.295841	-4.580071	-15.575531
3.700000	-0.118235	-5.961956	91.607201	0.024613	0.914239	0.619903	6.137960	-2.250395	4.017718	18.281681	0.319076	36.539687	-4.411848	0.000000	-0.159520	2.086951	-7.117537	6.500704	0.113459	35.927750	5.950796	0.000000	-0.062410	-0.120504	0.794704	-0.115902	-0.160270	0.844372	-0.102534	-0.292992	0.844372	-0.071329	-0.292992	0.695366	-0.057954	-0.245731	0.645697	-0.035661	-0.186660	0.596028	-0.445792	-1.363160	4.419903	0.000000	0.000000	18.163669	-0.335156	-15.914892	7.225909	-5.445002	-13.131741	148.399505	88.740180	-2.521673	4.814023	-1.225128	-17.980593	6.752185	136.739463	82.899015	-4.979165	-15.010003
3.716667	-0.176061	-5.918237	91.544666	0.024331	0.914264	0.620057	6.118746	-2.354709	3.930162	18.365559	0.320539	36.628456	-4.186678	0.000000	-0.206306	2.204336	-6.852371	6.469298	0.112911	35.862818	5.546670	0.000000	-0.067710	-0.117452	0.793243	-0.125743	-0.156211	0.842820	-0.111240	-0.285573	0.842820	-0.077385	-0.285573	0.694087	-0.062875	-0.239508	0.644510	-0.038689	-0.181933	0.594932	-0.483642	-1.328642	4.411777	0.000000	0.000000	18.067892	-0.447638	-15.689016	7.749211	-5.513051	-12.581451	148.109414	88.756678	-2.909961	5.634145	-0.895785	-18.044145	7.160670	136.583660	82.595254	-5.394022	-14.658641
3.733333	-0.261157	-5.875842	91.506637	0.024085	0.914252	0.620247	6.089664	-2.488951	3.818870	18.446313	0.321949	36.740597	-3.942722	0.000000	-0.242722	2.347013	-6.600620	6.447485	0.112530	35.791050	5.180865	0.000000	-0.073731	-0.119085	0.795698	-0.136926	-0.158382	0.845429	-0.121133	-0.289542	0.845429	-0.084267	-0.289542	0.696236	-0.068467	-0.242837	0.646505	-0.042130	-0.184462	0.596774	-0.526653	-1.347109	4.425434	0.000000	0.000000	18.009788	-0.551795	-15.516733	8.191571	-5.624170	-12.084731	147.831133	88.782619	-3.291663	6.476460	-0.547666	-18.163799	7.616733	136.363477	82.383951	-5.800072	-14.598833
3.750000	-0.358037	-5.845131	91.499641	0.023861	0.914198	0.620479	6.065755	-2.632755	3.707996	18.523473	0.323296	36.856733	-3.732247	0.000000	-0.253185	2.494526	-6.424449	6.445528	0.112496	35.737025	4.936539	0.000000	-0.079039	-0.123540	0.800142	-0.146783	-0.164308	0.850151	-0.129853	-0.300374	0.850151	-0.090333	-0.300374	0.700125	-0.073395	-0.251922	0.650116	-0.045163	-0.191363	0.600107	-0.564566	-1.397504	4.450152	0.000000	0.000000	17.991084	-0.648329	-15.393639	8.532914	-5.802693	-11.620141	147.576316	88.814109	-3.738049	7.269258	-0.195716	-18.318918	8.086683	136.104120	82.283789	-6.148096	-14.797693
3.766667	-0.455732	-5.825902	91.517598	0.023640	0.914109	0.620738	6.045992	-2.773146	3.622838	18.588671	0.324434	36.962080	-3.576177	0.000000	-0.241519	2.640039	-6.274013	6.457771	0.112709	35.693744	4.732376	0.000000	-0.083660	-0.129243	0.803886	-0.155364	-0.171894	0.854129	-0.137444	-0.314242	0.854129	-0.095615	-0.314242	0.703400	-0.077686	-0.263553	0.653157	-0.047803	-0.200198	0.602915	-0.597573	-1.462026	4.470973	0.000000	0.000000	18.010444	-0.733555	-15.293266	8.769063	-6.037591	-11.188212	147.345331	88.848294	-4.231265	7.968035	0.125918	-18.470264	8.506197	135.852094	82.304213	-6.376202	-15.149464
3.783333	-0.542625	-5.821556	91.538743	0.023445	0.913985	0.621010	6.038332	-2.893871	3.590304	18.641225	0.325351	37.046980	-3.492636	0.000000	-0.205592	2.763165	-6.268801	6.487525	0.113229	35.686266	4.700737	0.000000	-0.087096	-0.134973	0.808843	-0.161745	-0.179514	0.859395	-0.143089	-0.328174	0.859395	-0.099541	-0.328174	0.707737	-0.080877	-0.275237	0.657185	-0.049766	-0.209073	0.606632	-0.622115	-1.526844	4.498541	0.000000	0.000000	18.070191	-0.813367	-15.226813	8.897141	-6.316592	-10.798847	147.143481	88.881286	-4.754415	8.560748	0.394407	-18.593903	8.847676	135.641313	82.403077	-6.453676	-15.573241
